<svg xmlns="http://www.w3.org/2000/svg" xmlns:xlink="http://www.w3.org/1999/xlink" width="600" zoomAndPan="magnify" viewBox="0 0 450 262.499992" height="350" preserveAspectRatio="xMidYMid meet" version="1.0"><defs><g/></defs><g fill="#ff00ff" fill-opacity="1"><g transform="translate(-5.027769, 211.337154)"><g><path d="M 86.6875 -34.96875 L 51.296875 -34.96875 C 37.753906 -34.96875 28.015625 -37.789062 22.078125 -43.4375 C 16.148438 -49.09375 13.1875 -57.859375 13.1875 -69.734375 L 13.1875 -143.21875 C 13.1875 -145.875 13.78125 -147.796875 14.96875 -148.984375 C 16.15625 -150.171875 18.078125 -150.765625 20.734375 -150.765625 L 53.1875 -150.765625 C 55.832031 -150.765625 57.75 -150.171875 58.9375 -148.984375 C 60.125 -147.796875 60.71875 -145.875 60.71875 -143.21875 L 60.71875 -85.84375 C 60.71875 -83.613281 61.3125 -81.867188 62.5 -80.609375 C 63.6875 -79.359375 65.257812 -78.734375 67.21875 -78.734375 L 86.6875 -78.734375 L 86.6875 -143.21875 C 86.6875 -145.875 87.28125 -147.796875 88.46875 -148.984375 C 89.65625 -150.171875 91.570312 -150.765625 94.21875 -150.765625 L 126.46875 -150.765625 C 129.125 -150.765625 131.046875 -150.171875 132.234375 -148.984375 C 133.421875 -147.796875 134.015625 -145.875 134.015625 -143.21875 L 134.015625 -7.53125 C 134.015625 -4.882812 133.421875 -2.96875 132.234375 -1.78125 C 131.046875 -0.59375 129.125 0 126.46875 0 L 94.21875 0 C 91.570312 0 89.65625 -0.59375 88.46875 -1.78125 C 87.28125 -2.96875 86.6875 -4.882812 86.6875 -7.53125 Z M 86.6875 -34.96875 "/></g></g></g><g fill="#ff00ff" fill-opacity="1"><g transform="translate(143.429281, 211.337154)"><g><path d="M 140.078125 -39.578125 C 140.078125 -33.148438 139.171875 -27.316406 137.359375 -22.078125 C 135.546875 -16.847656 132.265625 -12.382812 127.515625 -8.6875 C 122.773438 -4.988281 116.25 -2.09375 107.9375 0 C 99.632812 2.09375 89.0625 3.140625 76.21875 3.140625 C 63.375 3.140625 52.796875 2.09375 44.484375 0 C 36.179688 -2.09375 29.65625 -4.988281 24.90625 -8.6875 C 20.164062 -12.382812 16.851562 -16.847656 14.96875 -22.078125 C 13.082031 -27.316406 12.140625 -33.148438 12.140625 -39.578125 L 12.140625 -110.984375 C 12.140625 -117.398438 13.082031 -123.222656 14.96875 -128.453125 C 16.851562 -133.691406 20.164062 -138.195312 24.90625 -141.96875 C 29.65625 -145.738281 36.179688 -148.671875 44.484375 -150.765625 C 52.796875 -152.859375 63.375 -153.90625 76.21875 -153.90625 C 89.0625 -153.90625 99.632812 -152.859375 107.9375 -150.765625 C 116.25 -148.671875 122.773438 -145.738281 127.515625 -141.96875 C 132.265625 -138.195312 135.546875 -133.691406 137.359375 -128.453125 C 139.171875 -123.222656 140.078125 -117.398438 140.078125 -110.984375 Z M 59.46875 -47.109375 C 59.46875 -44.316406 60.476562 -41.976562 62.5 -40.09375 C 64.53125 -38.207031 69.101562 -37.265625 76.21875 -37.265625 C 83.332031 -37.265625 87.898438 -38.207031 89.921875 -40.09375 C 91.953125 -41.976562 92.96875 -44.316406 92.96875 -47.109375 L 92.96875 -103.4375 C 92.96875 -106.09375 91.953125 -108.363281 89.921875 -110.25 C 87.898438 -112.132812 83.332031 -113.078125 76.21875 -113.078125 C 69.101562 -113.078125 64.53125 -112.132812 62.5 -110.25 C 60.476562 -108.363281 59.46875 -106.09375 59.46875 -103.4375 Z M 59.46875 -47.109375 "/></g></g></g><g fill="#ff00ff" fill-opacity="1"><g transform="translate(295.655333, 211.337154)"><g><path d="M 86.6875 -34.96875 L 51.296875 -34.96875 C 37.753906 -34.96875 28.015625 -37.789062 22.078125 -43.4375 C 16.148438 -49.09375 13.1875 -57.859375 13.1875 -69.734375 L 13.1875 -143.21875 C 13.1875 -145.875 13.78125 -147.796875 14.96875 -148.984375 C 16.15625 -150.171875 18.078125 -150.765625 20.734375 -150.765625 L 53.1875 -150.765625 C 55.832031 -150.765625 57.75 -150.171875 58.9375 -148.984375 C 60.125 -147.796875 60.71875 -145.875 60.71875 -143.21875 L 60.71875 -85.84375 C 60.71875 -83.613281 61.3125 -81.867188 62.5 -80.609375 C 63.6875 -79.359375 65.257812 -78.734375 67.21875 -78.734375 L 86.6875 -78.734375 L 86.6875 -143.21875 C 86.6875 -145.875 87.28125 -147.796875 88.46875 -148.984375 C 89.65625 -150.171875 91.570312 -150.765625 94.21875 -150.765625 L 126.46875 -150.765625 C 129.125 -150.765625 131.046875 -150.171875 132.234375 -148.984375 C 133.421875 -147.796875 134.015625 -145.875 134.015625 -143.21875 L 134.015625 -7.53125 C 134.015625 -4.882812 133.421875 -2.96875 132.234375 -1.78125 C 131.046875 -0.59375 129.125 0 126.46875 0 L 94.21875 0 C 91.570312 0 89.65625 -0.59375 88.46875 -1.78125 C 87.28125 -2.96875 86.6875 -4.882812 86.6875 -7.53125 Z M 86.6875 -34.96875 "/></g></g></g><g fill="#00ffff" fill-opacity="1"><g transform="translate(5.883295, 201.162424)"><g><path d="M 86.6875 -34.96875 L 51.296875 -34.96875 C 37.753906 -34.96875 28.015625 -37.789062 22.078125 -43.4375 C 16.148438 -49.09375 13.1875 -57.859375 13.1875 -69.734375 L 13.1875 -143.21875 C 13.1875 -145.875 13.78125 -147.796875 14.96875 -148.984375 C 16.15625 -150.171875 18.078125 -150.765625 20.734375 -150.765625 L 53.1875 -150.765625 C 55.832031 -150.765625 57.75 -150.171875 58.9375 -148.984375 C 60.125 -147.796875 60.71875 -145.875 60.71875 -143.21875 L 60.71875 -85.84375 C 60.71875 -83.613281 61.3125 -81.867188 62.5 -80.609375 C 63.6875 -79.359375 65.257812 -78.734375 67.21875 -78.734375 L 86.6875 -78.734375 L 86.6875 -143.21875 C 86.6875 -145.875 87.28125 -147.796875 88.46875 -148.984375 C 89.65625 -150.171875 91.570312 -150.765625 94.21875 -150.765625 L 126.46875 -150.765625 C 129.125 -150.765625 131.046875 -150.171875 132.234375 -148.984375 C 133.421875 -147.796875 134.015625 -145.875 134.015625 -143.21875 L 134.015625 -7.53125 C 134.015625 -4.882812 133.421875 -2.96875 132.234375 -1.78125 C 131.046875 -0.59375 129.125 0 126.46875 0 L 94.21875 0 C 91.570312 0 89.65625 -0.59375 88.46875 -1.78125 C 87.28125 -2.96875 86.6875 -4.882812 86.6875 -7.53125 Z M 86.6875 -34.96875 "/></g></g></g><g fill="#00ffff" fill-opacity="1"><g transform="translate(154.340345, 201.162424)"><g><path d="M 140.078125 -39.578125 C 140.078125 -33.148438 139.171875 -27.316406 137.359375 -22.078125 C 135.546875 -16.847656 132.265625 -12.382812 127.515625 -8.6875 C 122.773438 -4.988281 116.25 -2.09375 107.9375 0 C 99.632812 2.09375 89.0625 3.140625 76.21875 3.140625 C 63.375 3.140625 52.796875 2.09375 44.484375 0 C 36.179688 -2.09375 29.65625 -4.988281 24.90625 -8.6875 C 20.164062 -12.382812 16.851562 -16.847656 14.96875 -22.078125 C 13.082031 -27.316406 12.140625 -33.148438 12.140625 -39.578125 L 12.140625 -110.984375 C 12.140625 -117.398438 13.082031 -123.222656 14.96875 -128.453125 C 16.851562 -133.691406 20.164062 -138.195312 24.90625 -141.96875 C 29.65625 -145.738281 36.179688 -148.671875 44.484375 -150.765625 C 52.796875 -152.859375 63.375 -153.90625 76.21875 -153.90625 C 89.0625 -153.90625 99.632812 -152.859375 107.9375 -150.765625 C 116.25 -148.671875 122.773438 -145.738281 127.515625 -141.96875 C 132.265625 -138.195312 135.546875 -133.691406 137.359375 -128.453125 C 139.171875 -123.222656 140.078125 -117.398438 140.078125 -110.984375 Z M 59.46875 -47.109375 C 59.46875 -44.316406 60.476562 -41.976562 62.5 -40.09375 C 64.53125 -38.207031 69.101562 -37.265625 76.21875 -37.265625 C 83.332031 -37.265625 87.898438 -38.207031 89.921875 -40.09375 C 91.953125 -41.976562 92.96875 -44.316406 92.96875 -47.109375 L 92.96875 -103.4375 C 92.96875 -106.09375 91.953125 -108.363281 89.921875 -110.25 C 87.898438 -112.132812 83.332031 -113.078125 76.21875 -113.078125 C 69.101562 -113.078125 64.53125 -112.132812 62.5 -110.25 C 60.476562 -108.363281 59.46875 -106.09375 59.46875 -103.4375 Z M 59.46875 -47.109375 "/></g></g></g><g fill="#00ffff" fill-opacity="1"><g transform="translate(306.566398, 201.162424)"><g><path d="M 86.6875 -34.96875 L 51.296875 -34.96875 C 37.753906 -34.96875 28.015625 -37.789062 22.078125 -43.4375 C 16.148438 -49.09375 13.1875 -57.859375 13.1875 -69.734375 L 13.1875 -143.21875 C 13.1875 -145.875 13.78125 -147.796875 14.96875 -148.984375 C 16.15625 -150.171875 18.078125 -150.765625 20.734375 -150.765625 L 53.1875 -150.765625 C 55.832031 -150.765625 57.75 -150.171875 58.9375 -148.984375 C 60.125 -147.796875 60.71875 -145.875 60.71875 -143.21875 L 60.71875 -85.84375 C 60.71875 -83.613281 61.3125 -81.867188 62.5 -80.609375 C 63.6875 -79.359375 65.257812 -78.734375 67.21875 -78.734375 L 86.6875 -78.734375 L 86.6875 -143.21875 C 86.6875 -145.875 87.28125 -147.796875 88.46875 -148.984375 C 89.65625 -150.171875 91.570312 -150.765625 94.21875 -150.765625 L 126.46875 -150.765625 C 129.125 -150.765625 131.046875 -150.171875 132.234375 -148.984375 C 133.421875 -147.796875 134.015625 -145.875 134.015625 -143.21875 L 134.015625 -7.53125 C 134.015625 -4.882812 133.421875 -2.96875 132.234375 -1.78125 C 131.046875 -0.59375 129.125 0 126.46875 0 L 94.21875 0 C 91.570312 0 89.65625 -0.59375 88.46875 -1.78125 C 87.28125 -2.96875 86.6875 -4.882812 86.6875 -7.53125 Z M 86.6875 -34.96875 "/></g></g></g><g fill="#7843e6" fill-opacity="1"><g transform="translate(0.427763, 206.249789)"><g><path d="M 86.6875 -34.96875 L 51.296875 -34.96875 C 37.753906 -34.96875 28.015625 -37.789062 22.078125 -43.4375 C 16.148438 -49.09375 13.1875 -57.859375 13.1875 -69.734375 L 13.1875 -143.21875 C 13.1875 -145.875 13.78125 -147.796875 14.96875 -148.984375 C 16.15625 -150.171875 18.078125 -150.765625 20.734375 -150.765625 L 53.1875 -150.765625 C 55.832031 -150.765625 57.75 -150.171875 58.9375 -148.984375 C 60.125 -147.796875 60.71875 -145.875 60.71875 -143.21875 L 60.71875 -85.84375 C 60.71875 -83.613281 61.3125 -81.867188 62.5 -80.609375 C 63.6875 -79.359375 65.257812 -78.734375 67.21875 -78.734375 L 86.6875 -78.734375 L 86.6875 -143.21875 C 86.6875 -145.875 87.28125 -147.796875 88.46875 -148.984375 C 89.65625 -150.171875 91.570312 -150.765625 94.21875 -150.765625 L 126.46875 -150.765625 C 129.125 -150.765625 131.046875 -150.171875 132.234375 -148.984375 C 133.421875 -147.796875 134.015625 -145.875 134.015625 -143.21875 L 134.015625 -7.53125 C 134.015625 -4.882812 133.421875 -2.96875 132.234375 -1.78125 C 131.046875 -0.59375 129.125 0 126.46875 0 L 94.21875 0 C 91.570312 0 89.65625 -0.59375 88.46875 -1.78125 C 87.28125 -2.96875 86.6875 -4.882812 86.6875 -7.53125 Z M 86.6875 -34.96875 "/></g></g></g><g fill="#7843e6" fill-opacity="1"><g transform="translate(148.884813, 206.249789)"><g><path d="M 140.078125 -39.578125 C 140.078125 -33.148438 139.171875 -27.316406 137.359375 -22.078125 C 135.546875 -16.847656 132.265625 -12.382812 127.515625 -8.6875 C 122.773438 -4.988281 116.25 -2.09375 107.9375 0 C 99.632812 2.09375 89.0625 3.140625 76.21875 3.140625 C 63.375 3.140625 52.796875 2.09375 44.484375 0 C 36.179688 -2.09375 29.65625 -4.988281 24.90625 -8.6875 C 20.164062 -12.382812 16.851562 -16.847656 14.96875 -22.078125 C 13.082031 -27.316406 12.140625 -33.148438 12.140625 -39.578125 L 12.140625 -110.984375 C 12.140625 -117.398438 13.082031 -123.222656 14.96875 -128.453125 C 16.851562 -133.691406 20.164062 -138.195312 24.90625 -141.96875 C 29.65625 -145.738281 36.179688 -148.671875 44.484375 -150.765625 C 52.796875 -152.859375 63.375 -153.90625 76.21875 -153.90625 C 89.0625 -153.90625 99.632812 -152.859375 107.9375 -150.765625 C 116.25 -148.671875 122.773438 -145.738281 127.515625 -141.96875 C 132.265625 -138.195312 135.546875 -133.691406 137.359375 -128.453125 C 139.171875 -123.222656 140.078125 -117.398438 140.078125 -110.984375 Z M 59.46875 -47.109375 C 59.46875 -44.316406 60.476562 -41.976562 62.5 -40.09375 C 64.53125 -38.207031 69.101562 -37.265625 76.21875 -37.265625 C 83.332031 -37.265625 87.898438 -38.207031 89.921875 -40.09375 C 91.953125 -41.976562 92.96875 -44.316406 92.96875 -47.109375 L 92.96875 -103.4375 C 92.96875 -106.09375 91.953125 -108.363281 89.921875 -110.25 C 87.898438 -112.132812 83.332031 -113.078125 76.21875 -113.078125 C 69.101562 -113.078125 64.53125 -112.132812 62.5 -110.25 C 60.476562 -108.363281 59.46875 -106.09375 59.46875 -103.4375 Z M 59.46875 -47.109375 "/></g></g></g><g fill="#7843e6" fill-opacity="1"><g transform="translate(301.110866, 206.249789)"><g><path d="M 86.6875 -34.96875 L 51.296875 -34.96875 C 37.753906 -34.96875 28.015625 -37.789062 22.078125 -43.4375 C 16.148438 -49.09375 13.1875 -57.859375 13.1875 -69.734375 L 13.1875 -143.21875 C 13.1875 -145.875 13.78125 -147.796875 14.96875 -148.984375 C 16.15625 -150.171875 18.078125 -150.765625 20.734375 -150.765625 L 53.1875 -150.765625 C 55.832031 -150.765625 57.75 -150.171875 58.9375 -148.984375 C 60.125 -147.796875 60.71875 -145.875 60.71875 -143.21875 L 60.71875 -85.84375 C 60.71875 -83.613281 61.3125 -81.867188 62.5 -80.609375 C 63.6875 -79.359375 65.257812 -78.734375 67.21875 -78.734375 L 86.6875 -78.734375 L 86.6875 -143.21875 C 86.6875 -145.875 87.28125 -147.796875 88.46875 -148.984375 C 89.65625 -150.171875 91.570312 -150.765625 94.21875 -150.765625 L 126.46875 -150.765625 C 129.125 -150.765625 131.046875 -150.171875 132.234375 -148.984375 C 133.421875 -147.796875 134.015625 -145.875 134.015625 -143.21875 L 134.015625 -7.53125 C 134.015625 -4.882812 133.421875 -2.96875 132.234375 -1.78125 C 131.046875 -0.59375 129.125 0 126.46875 0 L 94.21875 0 C 91.570312 0 89.65625 -0.59375 88.46875 -1.78125 C 87.28125 -2.96875 86.6875 -4.882812 86.6875 -7.53125 Z M 86.6875 -34.96875 "/></g></g></g></svg>