<svg xmlns="http://www.w3.org/2000/svg" xmlns:xlink="http://www.w3.org/1999/xlink" width="600" zoomAndPan="magnify" viewBox="0 0 450 187.499995" height="250" preserveAspectRatio="xMidYMid meet" version="1.0"><defs><g/></defs><g fill="#ff00ff" fill-opacity="1"><g transform="translate(-3.021747, 146.810119)"><g><path d="M 94.34375 -26.265625 C 94.34375 -22.003906 93.71875 -18.132812 92.46875 -14.65625 C 91.21875 -11.1875 88.992188 -8.222656 85.796875 -5.765625 C 82.609375 -3.304688 78.210938 -1.382812 72.609375 0 C 67.003906 1.382812 59.894531 2.078125 51.28125 2.078125 C 42.65625 2.078125 35.519531 1.382812 29.875 0 C 24.226562 -1.382812 19.804688 -3.304688 16.609375 -5.765625 C 13.410156 -8.222656 11.1875 -11.1875 9.9375 -14.65625 C 8.6875 -18.132812 8.0625 -22.003906 8.0625 -26.265625 L 8.0625 -73.640625 C 8.0625 -77.898438 8.6875 -81.765625 9.9375 -85.234375 C 11.1875 -88.710938 13.410156 -91.703125 16.609375 -94.203125 C 19.804688 -96.710938 24.226562 -98.660156 29.875 -100.046875 C 35.519531 -101.429688 42.65625 -102.125 51.28125 -102.125 C 59.894531 -102.125 67.003906 -101.429688 72.609375 -100.046875 C 78.210938 -98.660156 82.609375 -96.710938 85.796875 -94.203125 C 88.992188 -91.703125 91.21875 -88.710938 92.46875 -85.234375 C 93.71875 -81.765625 94.34375 -77.898438 94.34375 -73.640625 Z M 39.609375 -31.265625 C 39.609375 -29.410156 40.300781 -27.859375 41.6875 -26.609375 C 43.070312 -25.359375 46.269531 -24.734375 51.28125 -24.734375 C 56.28125 -24.734375 59.472656 -25.359375 60.859375 -26.609375 C 62.253906 -27.859375 62.953125 -29.410156 62.953125 -31.265625 L 62.953125 -68.640625 C 62.953125 -70.398438 62.253906 -71.90625 60.859375 -73.15625 C 59.472656 -74.40625 56.28125 -75.03125 51.28125 -75.03125 C 46.269531 -75.03125 43.070312 -74.40625 41.6875 -73.15625 C 40.300781 -71.90625 39.609375 -70.398438 39.609375 -68.640625 Z M 39.609375 -31.265625 "/></g></g></g><g fill="#ff00ff" fill-opacity="1"><g transform="translate(99.381181, 146.810119)"><g><path d="M 94.34375 -26.265625 C 94.34375 -22.003906 93.71875 -18.132812 92.46875 -14.65625 C 91.21875 -11.1875 88.992188 -8.222656 85.796875 -5.765625 C 82.609375 -3.304688 78.210938 -1.382812 72.609375 0 C 67.003906 1.382812 59.894531 2.078125 51.28125 2.078125 C 42.65625 2.078125 35.519531 1.382812 29.875 0 C 24.226562 -1.382812 19.804688 -3.304688 16.609375 -5.765625 C 13.410156 -8.222656 11.1875 -11.1875 9.9375 -14.65625 C 8.6875 -18.132812 8.0625 -22.003906 8.0625 -26.265625 L 8.0625 -73.640625 C 8.0625 -77.898438 8.6875 -81.765625 9.9375 -85.234375 C 11.1875 -88.710938 13.410156 -91.703125 16.609375 -94.203125 C 19.804688 -96.710938 24.226562 -98.660156 29.875 -100.046875 C 35.519531 -101.429688 42.65625 -102.125 51.28125 -102.125 C 59.894531 -102.125 67.003906 -101.429688 72.609375 -100.046875 C 78.210938 -98.660156 82.609375 -96.710938 85.796875 -94.203125 C 88.992188 -91.703125 91.21875 -88.710938 92.46875 -85.234375 C 93.71875 -81.765625 94.34375 -77.898438 94.34375 -73.640625 Z M 39.609375 -31.265625 C 39.609375 -29.410156 40.300781 -27.859375 41.6875 -26.609375 C 43.070312 -25.359375 46.269531 -24.734375 51.28125 -24.734375 C 56.28125 -24.734375 59.472656 -25.359375 60.859375 -26.609375 C 62.253906 -27.859375 62.953125 -29.410156 62.953125 -31.265625 L 62.953125 -68.640625 C 62.953125 -70.398438 62.253906 -71.90625 60.859375 -73.15625 C 59.472656 -74.40625 56.28125 -75.03125 51.28125 -75.03125 C 46.269531 -75.03125 43.070312 -74.40625 41.6875 -73.15625 C 40.300781 -71.90625 39.609375 -70.398438 39.609375 -68.640625 Z M 39.609375 -31.265625 "/></g></g></g><g fill="#ff00ff" fill-opacity="1"><g transform="translate(201.784109, 146.810119)"><g><path d="M 36.125 0 L 14.59375 0 C 12.832031 0 11.554688 -0.390625 10.765625 -1.171875 C 9.984375 -1.960938 9.59375 -3.238281 9.59375 -5 L 9.59375 -95.046875 C 9.59375 -96.804688 9.984375 -98.078125 10.765625 -98.859375 C 11.554688 -99.648438 12.832031 -100.046875 14.59375 -100.046875 L 57.109375 -100.046875 C 69.703125 -100.046875 78.316406 -97.546875 82.953125 -92.546875 C 87.585938 -87.546875 89.90625 -81.015625 89.90625 -72.953125 L 89.90625 -55.171875 C 89.90625 -47.109375 87.585938 -40.570312 82.953125 -35.5625 C 78.316406 -30.5625 69.703125 -28.0625 57.109375 -28.0625 L 41.125 -28.0625 L 41.125 -5 C 41.125 -3.238281 40.726562 -1.960938 39.9375 -1.171875 C 39.15625 -0.390625 37.882812 0 36.125 0 Z M 40.859375 -74.0625 L 40.859375 -53.078125 L 53.359375 -53.078125 C 56.046875 -53.078125 57.804688 -53.769531 58.640625 -55.15625 C 59.472656 -56.550781 59.890625 -58.128906 59.890625 -59.890625 L 59.890625 -67.25 C 59.890625 -69.007812 59.472656 -70.582031 58.640625 -71.96875 C 57.804688 -73.363281 56.046875 -74.0625 53.359375 -74.0625 Z M 40.859375 -74.0625 "/></g></g></g><g fill="#ff00ff" fill-opacity="1"><g transform="translate(296.545025, 146.810119)"><g><path d="M 56 0 L 12.09375 0 C 10.332031 0 9.054688 -0.390625 8.265625 -1.171875 C 7.484375 -1.960938 7.09375 -3.238281 7.09375 -5 L 7.09375 -21.265625 C 7.09375 -23.023438 7.484375 -24.296875 8.265625 -25.078125 C 9.054688 -25.867188 10.332031 -26.265625 12.09375 -26.265625 L 49.46875 -26.265625 C 50.675781 -26.265625 51.578125 -26.65625 52.171875 -27.4375 C 52.773438 -28.226562 53.078125 -29.179688 53.078125 -30.296875 C 53.078125 -31.867188 52.773438 -33.023438 52.171875 -33.765625 C 51.578125 -34.503906 50.675781 -34.921875 49.46875 -35.015625 L 28.625 -37.9375 C 22.132812 -38.863281 16.921875 -40.992188 12.984375 -44.328125 C 9.054688 -47.660156 7.09375 -53.21875 7.09375 -61 L 7.09375 -75.59375 C 7.09375 -83.46875 9.640625 -89.507812 14.734375 -93.71875 C 19.828125 -97.9375 26.863281 -100.046875 35.84375 -100.046875 L 74.75 -100.046875 C 76.507812 -100.046875 77.785156 -99.648438 78.578125 -98.859375 C 79.367188 -98.078125 79.765625 -96.804688 79.765625 -95.046875 L 79.765625 -78.515625 C 79.765625 -76.753906 79.367188 -75.476562 78.578125 -74.6875 C 77.785156 -73.894531 76.507812 -73.5 74.75 -73.5 L 42.375 -73.5 C 41.175781 -73.5 40.25 -73.101562 39.59375 -72.3125 C 38.945312 -71.53125 38.625 -70.539062 38.625 -69.34375 C 38.625 -68.132812 38.945312 -67.113281 39.59375 -66.28125 C 40.25 -65.445312 41.175781 -64.984375 42.375 -64.890625 L 63.078125 -62.109375 C 69.566406 -61.179688 74.800781 -59.050781 78.78125 -55.71875 C 82.769531 -52.382812 84.765625 -46.828125 84.765625 -39.046875 L 84.765625 -24.453125 C 84.765625 -16.578125 82.191406 -10.53125 77.046875 -6.3125 C 71.910156 -2.101562 64.894531 0 56 0 Z M 56 0 "/></g></g></g><g fill="#ff00ff" fill-opacity="1"><g transform="translate(386.859693, 146.810119)"><g><path d="M 40.296875 -36.40625 L 18.765625 -36.40625 C 17.003906 -36.40625 15.726562 -36.796875 14.9375 -37.578125 C 14.15625 -38.367188 13.71875 -39.644531 13.625 -41.40625 L 11.53125 -95.046875 C 11.4375 -96.804688 11.757812 -98.078125 12.5 -98.859375 C 13.25 -99.648438 14.503906 -100.046875 16.265625 -100.046875 L 42.796875 -100.046875 C 44.554688 -100.046875 45.804688 -99.648438 46.546875 -98.859375 C 47.285156 -98.078125 47.613281 -96.804688 47.53125 -95.046875 L 45.578125 -41.40625 C 45.484375 -39.644531 45.019531 -38.367188 44.1875 -37.578125 C 43.351562 -36.796875 42.054688 -36.40625 40.296875 -36.40625 Z M 42.375 0 L 16.8125 0 C 15.050781 0 13.773438 -0.390625 12.984375 -1.171875 C 12.203125 -1.960938 11.8125 -3.238281 11.8125 -5 L 11.8125 -23.203125 C 11.8125 -24.960938 12.203125 -26.234375 12.984375 -27.015625 C 13.773438 -27.804688 15.050781 -28.203125 16.8125 -28.203125 L 42.375 -28.203125 C 44.132812 -28.203125 45.410156 -27.804688 46.203125 -27.015625 C 46.992188 -26.234375 47.390625 -24.960938 47.390625 -23.203125 L 47.390625 -5 C 47.390625 -3.238281 46.992188 -1.960938 46.203125 -1.171875 C 45.410156 -0.390625 44.132812 0 42.375 0 Z M 42.375 0 "/></g></g></g><g fill="#00ffff" fill-opacity="1"><g transform="translate(4.218568, 140.058414)"><g><path d="M 94.34375 -26.265625 C 94.34375 -22.003906 93.71875 -18.132812 92.46875 -14.65625 C 91.21875 -11.1875 88.992188 -8.222656 85.796875 -5.765625 C 82.609375 -3.304688 78.210938 -1.382812 72.609375 0 C 67.003906 1.382812 59.894531 2.078125 51.28125 2.078125 C 42.65625 2.078125 35.519531 1.382812 29.875 0 C 24.226562 -1.382812 19.804688 -3.304688 16.609375 -5.765625 C 13.410156 -8.222656 11.1875 -11.1875 9.9375 -14.65625 C 8.6875 -18.132812 8.0625 -22.003906 8.0625 -26.265625 L 8.0625 -73.640625 C 8.0625 -77.898438 8.6875 -81.765625 9.9375 -85.234375 C 11.1875 -88.710938 13.410156 -91.703125 16.609375 -94.203125 C 19.804688 -96.710938 24.226562 -98.660156 29.875 -100.046875 C 35.519531 -101.429688 42.65625 -102.125 51.28125 -102.125 C 59.894531 -102.125 67.003906 -101.429688 72.609375 -100.046875 C 78.210938 -98.660156 82.609375 -96.710938 85.796875 -94.203125 C 88.992188 -91.703125 91.21875 -88.710938 92.46875 -85.234375 C 93.71875 -81.765625 94.34375 -77.898438 94.34375 -73.640625 Z M 39.609375 -31.265625 C 39.609375 -29.410156 40.300781 -27.859375 41.6875 -26.609375 C 43.070312 -25.359375 46.269531 -24.734375 51.28125 -24.734375 C 56.28125 -24.734375 59.472656 -25.359375 60.859375 -26.609375 C 62.253906 -27.859375 62.953125 -29.410156 62.953125 -31.265625 L 62.953125 -68.640625 C 62.953125 -70.398438 62.253906 -71.90625 60.859375 -73.15625 C 59.472656 -74.40625 56.28125 -75.03125 51.28125 -75.03125 C 46.269531 -75.03125 43.070312 -74.40625 41.6875 -73.15625 C 40.300781 -71.90625 39.609375 -70.398438 39.609375 -68.640625 Z M 39.609375 -31.265625 "/></g></g></g><g fill="#00ffff" fill-opacity="1"><g transform="translate(106.621496, 140.058414)"><g><path d="M 94.34375 -26.265625 C 94.34375 -22.003906 93.71875 -18.132812 92.46875 -14.65625 C 91.21875 -11.1875 88.992188 -8.222656 85.796875 -5.765625 C 82.609375 -3.304688 78.210938 -1.382812 72.609375 0 C 67.003906 1.382812 59.894531 2.078125 51.28125 2.078125 C 42.65625 2.078125 35.519531 1.382812 29.875 0 C 24.226562 -1.382812 19.804688 -3.304688 16.609375 -5.765625 C 13.410156 -8.222656 11.1875 -11.1875 9.9375 -14.65625 C 8.6875 -18.132812 8.0625 -22.003906 8.0625 -26.265625 L 8.0625 -73.640625 C 8.0625 -77.898438 8.6875 -81.765625 9.9375 -85.234375 C 11.1875 -88.710938 13.410156 -91.703125 16.609375 -94.203125 C 19.804688 -96.710938 24.226562 -98.660156 29.875 -100.046875 C 35.519531 -101.429688 42.65625 -102.125 51.28125 -102.125 C 59.894531 -102.125 67.003906 -101.429688 72.609375 -100.046875 C 78.210938 -98.660156 82.609375 -96.710938 85.796875 -94.203125 C 88.992188 -91.703125 91.21875 -88.710938 92.46875 -85.234375 C 93.71875 -81.765625 94.34375 -77.898438 94.34375 -73.640625 Z M 39.609375 -31.265625 C 39.609375 -29.410156 40.300781 -27.859375 41.6875 -26.609375 C 43.070312 -25.359375 46.269531 -24.734375 51.28125 -24.734375 C 56.28125 -24.734375 59.472656 -25.359375 60.859375 -26.609375 C 62.253906 -27.859375 62.953125 -29.410156 62.953125 -31.265625 L 62.953125 -68.640625 C 62.953125 -70.398438 62.253906 -71.90625 60.859375 -73.15625 C 59.472656 -74.40625 56.28125 -75.03125 51.28125 -75.03125 C 46.269531 -75.03125 43.070312 -74.40625 41.6875 -73.15625 C 40.300781 -71.90625 39.609375 -70.398438 39.609375 -68.640625 Z M 39.609375 -31.265625 "/></g></g></g><g fill="#00ffff" fill-opacity="1"><g transform="translate(209.024423, 140.058414)"><g><path d="M 36.125 0 L 14.59375 0 C 12.832031 0 11.554688 -0.390625 10.765625 -1.171875 C 9.984375 -1.960938 9.59375 -3.238281 9.59375 -5 L 9.59375 -95.046875 C 9.59375 -96.804688 9.984375 -98.078125 10.765625 -98.859375 C 11.554688 -99.648438 12.832031 -100.046875 14.59375 -100.046875 L 57.109375 -100.046875 C 69.703125 -100.046875 78.316406 -97.546875 82.953125 -92.546875 C 87.585938 -87.546875 89.90625 -81.015625 89.90625 -72.953125 L 89.90625 -55.171875 C 89.90625 -47.109375 87.585938 -40.570312 82.953125 -35.5625 C 78.316406 -30.5625 69.703125 -28.0625 57.109375 -28.0625 L 41.125 -28.0625 L 41.125 -5 C 41.125 -3.238281 40.726562 -1.960938 39.9375 -1.171875 C 39.15625 -0.390625 37.882812 0 36.125 0 Z M 40.859375 -74.0625 L 40.859375 -53.078125 L 53.359375 -53.078125 C 56.046875 -53.078125 57.804688 -53.769531 58.640625 -55.15625 C 59.472656 -56.550781 59.890625 -58.128906 59.890625 -59.890625 L 59.890625 -67.25 C 59.890625 -69.007812 59.472656 -70.582031 58.640625 -71.96875 C 57.804688 -73.363281 56.046875 -74.0625 53.359375 -74.0625 Z M 40.859375 -74.0625 "/></g></g></g><g fill="#00ffff" fill-opacity="1"><g transform="translate(303.78534, 140.058414)"><g><path d="M 56 0 L 12.09375 0 C 10.332031 0 9.054688 -0.390625 8.265625 -1.171875 C 7.484375 -1.960938 7.09375 -3.238281 7.09375 -5 L 7.09375 -21.265625 C 7.09375 -23.023438 7.484375 -24.296875 8.265625 -25.078125 C 9.054688 -25.867188 10.332031 -26.265625 12.09375 -26.265625 L 49.46875 -26.265625 C 50.675781 -26.265625 51.578125 -26.65625 52.171875 -27.4375 C 52.773438 -28.226562 53.078125 -29.179688 53.078125 -30.296875 C 53.078125 -31.867188 52.773438 -33.023438 52.171875 -33.765625 C 51.578125 -34.503906 50.675781 -34.921875 49.46875 -35.015625 L 28.625 -37.9375 C 22.132812 -38.863281 16.921875 -40.992188 12.984375 -44.328125 C 9.054688 -47.660156 7.09375 -53.21875 7.09375 -61 L 7.09375 -75.59375 C 7.09375 -83.46875 9.640625 -89.507812 14.734375 -93.71875 C 19.828125 -97.9375 26.863281 -100.046875 35.84375 -100.046875 L 74.75 -100.046875 C 76.507812 -100.046875 77.785156 -99.648438 78.578125 -98.859375 C 79.367188 -98.078125 79.765625 -96.804688 79.765625 -95.046875 L 79.765625 -78.515625 C 79.765625 -76.753906 79.367188 -75.476562 78.578125 -74.6875 C 77.785156 -73.894531 76.507812 -73.5 74.75 -73.5 L 42.375 -73.5 C 41.175781 -73.5 40.25 -73.101562 39.59375 -72.3125 C 38.945312 -71.53125 38.625 -70.539062 38.625 -69.34375 C 38.625 -68.132812 38.945312 -67.113281 39.59375 -66.28125 C 40.25 -65.445312 41.175781 -64.984375 42.375 -64.890625 L 63.078125 -62.109375 C 69.566406 -61.179688 74.800781 -59.050781 78.78125 -55.71875 C 82.769531 -52.382812 84.765625 -46.828125 84.765625 -39.046875 L 84.765625 -24.453125 C 84.765625 -16.578125 82.191406 -10.53125 77.046875 -6.3125 C 71.910156 -2.101562 64.894531 0 56 0 Z M 56 0 "/></g></g></g><g fill="#00ffff" fill-opacity="1"><g transform="translate(394.100007, 140.058414)"><g><path d="M 40.296875 -36.40625 L 18.765625 -36.40625 C 17.003906 -36.40625 15.726562 -36.796875 14.9375 -37.578125 C 14.15625 -38.367188 13.71875 -39.644531 13.625 -41.40625 L 11.53125 -95.046875 C 11.4375 -96.804688 11.757812 -98.078125 12.5 -98.859375 C 13.25 -99.648438 14.503906 -100.046875 16.265625 -100.046875 L 42.796875 -100.046875 C 44.554688 -100.046875 45.804688 -99.648438 46.546875 -98.859375 C 47.285156 -98.078125 47.613281 -96.804688 47.53125 -95.046875 L 45.578125 -41.40625 C 45.484375 -39.644531 45.019531 -38.367188 44.1875 -37.578125 C 43.351562 -36.796875 42.054688 -36.40625 40.296875 -36.40625 Z M 42.375 0 L 16.8125 0 C 15.050781 0 13.773438 -0.390625 12.984375 -1.171875 C 12.203125 -1.960938 11.8125 -3.238281 11.8125 -5 L 11.8125 -23.203125 C 11.8125 -24.960938 12.203125 -26.234375 12.984375 -27.015625 C 13.773438 -27.804688 15.050781 -28.203125 16.8125 -28.203125 L 42.375 -28.203125 C 44.132812 -28.203125 45.410156 -27.804688 46.203125 -27.015625 C 46.992188 -26.234375 47.390625 -24.960938 47.390625 -23.203125 L 47.390625 -5 C 47.390625 -3.238281 46.992188 -1.960938 46.203125 -1.171875 C 45.410156 -0.390625 44.132812 0 42.375 0 Z M 42.375 0 "/></g></g></g><g fill="#7843e6" fill-opacity="1"><g transform="translate(0.598411, 143.434267)"><g><path d="M 94.34375 -26.265625 C 94.34375 -22.003906 93.71875 -18.132812 92.46875 -14.65625 C 91.21875 -11.1875 88.992188 -8.222656 85.796875 -5.765625 C 82.609375 -3.304688 78.210938 -1.382812 72.609375 0 C 67.003906 1.382812 59.894531 2.078125 51.28125 2.078125 C 42.65625 2.078125 35.519531 1.382812 29.875 0 C 24.226562 -1.382812 19.804688 -3.304688 16.609375 -5.765625 C 13.410156 -8.222656 11.1875 -11.1875 9.9375 -14.65625 C 8.6875 -18.132812 8.0625 -22.003906 8.0625 -26.265625 L 8.0625 -73.640625 C 8.0625 -77.898438 8.6875 -81.765625 9.9375 -85.234375 C 11.1875 -88.710938 13.410156 -91.703125 16.609375 -94.203125 C 19.804688 -96.710938 24.226562 -98.660156 29.875 -100.046875 C 35.519531 -101.429688 42.65625 -102.125 51.28125 -102.125 C 59.894531 -102.125 67.003906 -101.429688 72.609375 -100.046875 C 78.210938 -98.660156 82.609375 -96.710938 85.796875 -94.203125 C 88.992188 -91.703125 91.21875 -88.710938 92.46875 -85.234375 C 93.71875 -81.765625 94.34375 -77.898438 94.34375 -73.640625 Z M 39.609375 -31.265625 C 39.609375 -29.410156 40.300781 -27.859375 41.6875 -26.609375 C 43.070312 -25.359375 46.269531 -24.734375 51.28125 -24.734375 C 56.28125 -24.734375 59.472656 -25.359375 60.859375 -26.609375 C 62.253906 -27.859375 62.953125 -29.410156 62.953125 -31.265625 L 62.953125 -68.640625 C 62.953125 -70.398438 62.253906 -71.90625 60.859375 -73.15625 C 59.472656 -74.40625 56.28125 -75.03125 51.28125 -75.03125 C 46.269531 -75.03125 43.070312 -74.40625 41.6875 -73.15625 C 40.300781 -71.90625 39.609375 -70.398438 39.609375 -68.640625 Z M 39.609375 -31.265625 "/></g></g></g><g fill="#7843e6" fill-opacity="1"><g transform="translate(103.001338, 143.434267)"><g><path d="M 94.34375 -26.265625 C 94.34375 -22.003906 93.71875 -18.132812 92.46875 -14.65625 C 91.21875 -11.1875 88.992188 -8.222656 85.796875 -5.765625 C 82.609375 -3.304688 78.210938 -1.382812 72.609375 0 C 67.003906 1.382812 59.894531 2.078125 51.28125 2.078125 C 42.65625 2.078125 35.519531 1.382812 29.875 0 C 24.226562 -1.382812 19.804688 -3.304688 16.609375 -5.765625 C 13.410156 -8.222656 11.1875 -11.1875 9.9375 -14.65625 C 8.6875 -18.132812 8.0625 -22.003906 8.0625 -26.265625 L 8.0625 -73.640625 C 8.0625 -77.898438 8.6875 -81.765625 9.9375 -85.234375 C 11.1875 -88.710938 13.410156 -91.703125 16.609375 -94.203125 C 19.804688 -96.710938 24.226562 -98.660156 29.875 -100.046875 C 35.519531 -101.429688 42.65625 -102.125 51.28125 -102.125 C 59.894531 -102.125 67.003906 -101.429688 72.609375 -100.046875 C 78.210938 -98.660156 82.609375 -96.710938 85.796875 -94.203125 C 88.992188 -91.703125 91.21875 -88.710938 92.46875 -85.234375 C 93.71875 -81.765625 94.34375 -77.898438 94.34375 -73.640625 Z M 39.609375 -31.265625 C 39.609375 -29.410156 40.300781 -27.859375 41.6875 -26.609375 C 43.070312 -25.359375 46.269531 -24.734375 51.28125 -24.734375 C 56.28125 -24.734375 59.472656 -25.359375 60.859375 -26.609375 C 62.253906 -27.859375 62.953125 -29.410156 62.953125 -31.265625 L 62.953125 -68.640625 C 62.953125 -70.398438 62.253906 -71.90625 60.859375 -73.15625 C 59.472656 -74.40625 56.28125 -75.03125 51.28125 -75.03125 C 46.269531 -75.03125 43.070312 -74.40625 41.6875 -73.15625 C 40.300781 -71.90625 39.609375 -70.398438 39.609375 -68.640625 Z M 39.609375 -31.265625 "/></g></g></g><g fill="#7843e6" fill-opacity="1"><g transform="translate(205.404266, 143.434267)"><g><path d="M 36.125 0 L 14.59375 0 C 12.832031 0 11.554688 -0.390625 10.765625 -1.171875 C 9.984375 -1.960938 9.59375 -3.238281 9.59375 -5 L 9.59375 -95.046875 C 9.59375 -96.804688 9.984375 -98.078125 10.765625 -98.859375 C 11.554688 -99.648438 12.832031 -100.046875 14.59375 -100.046875 L 57.109375 -100.046875 C 69.703125 -100.046875 78.316406 -97.546875 82.953125 -92.546875 C 87.585938 -87.546875 89.90625 -81.015625 89.90625 -72.953125 L 89.90625 -55.171875 C 89.90625 -47.109375 87.585938 -40.570312 82.953125 -35.5625 C 78.316406 -30.5625 69.703125 -28.0625 57.109375 -28.0625 L 41.125 -28.0625 L 41.125 -5 C 41.125 -3.238281 40.726562 -1.960938 39.9375 -1.171875 C 39.15625 -0.390625 37.882812 0 36.125 0 Z M 40.859375 -74.0625 L 40.859375 -53.078125 L 53.359375 -53.078125 C 56.046875 -53.078125 57.804688 -53.769531 58.640625 -55.15625 C 59.472656 -56.550781 59.890625 -58.128906 59.890625 -59.890625 L 59.890625 -67.25 C 59.890625 -69.007812 59.472656 -70.582031 58.640625 -71.96875 C 57.804688 -73.363281 56.046875 -74.0625 53.359375 -74.0625 Z M 40.859375 -74.0625 "/></g></g></g><g fill="#7843e6" fill-opacity="1"><g transform="translate(300.165183, 143.434267)"><g><path d="M 56 0 L 12.09375 0 C 10.332031 0 9.054688 -0.390625 8.265625 -1.171875 C 7.484375 -1.960938 7.09375 -3.238281 7.09375 -5 L 7.09375 -21.265625 C 7.09375 -23.023438 7.484375 -24.296875 8.265625 -25.078125 C 9.054688 -25.867188 10.332031 -26.265625 12.09375 -26.265625 L 49.46875 -26.265625 C 50.675781 -26.265625 51.578125 -26.65625 52.171875 -27.4375 C 52.773438 -28.226562 53.078125 -29.179688 53.078125 -30.296875 C 53.078125 -31.867188 52.773438 -33.023438 52.171875 -33.765625 C 51.578125 -34.503906 50.675781 -34.921875 49.46875 -35.015625 L 28.625 -37.9375 C 22.132812 -38.863281 16.921875 -40.992188 12.984375 -44.328125 C 9.054688 -47.660156 7.09375 -53.21875 7.09375 -61 L 7.09375 -75.59375 C 7.09375 -83.46875 9.640625 -89.507812 14.734375 -93.71875 C 19.828125 -97.9375 26.863281 -100.046875 35.84375 -100.046875 L 74.75 -100.046875 C 76.507812 -100.046875 77.785156 -99.648438 78.578125 -98.859375 C 79.367188 -98.078125 79.765625 -96.804688 79.765625 -95.046875 L 79.765625 -78.515625 C 79.765625 -76.753906 79.367188 -75.476562 78.578125 -74.6875 C 77.785156 -73.894531 76.507812 -73.5 74.75 -73.5 L 42.375 -73.5 C 41.175781 -73.5 40.25 -73.101562 39.59375 -72.3125 C 38.945312 -71.53125 38.625 -70.539062 38.625 -69.34375 C 38.625 -68.132812 38.945312 -67.113281 39.59375 -66.28125 C 40.25 -65.445312 41.175781 -64.984375 42.375 -64.890625 L 63.078125 -62.109375 C 69.566406 -61.179688 74.800781 -59.050781 78.78125 -55.71875 C 82.769531 -52.382812 84.765625 -46.828125 84.765625 -39.046875 L 84.765625 -24.453125 C 84.765625 -16.578125 82.191406 -10.53125 77.046875 -6.3125 C 71.910156 -2.101562 64.894531 0 56 0 Z M 56 0 "/></g></g></g><g fill="#7843e6" fill-opacity="1"><g transform="translate(390.47985, 143.434267)"><g><path d="M 40.296875 -36.40625 L 18.765625 -36.40625 C 17.003906 -36.40625 15.726562 -36.796875 14.9375 -37.578125 C 14.15625 -38.367188 13.71875 -39.644531 13.625 -41.40625 L 11.53125 -95.046875 C 11.4375 -96.804688 11.757812 -98.078125 12.5 -98.859375 C 13.25 -99.648438 14.503906 -100.046875 16.265625 -100.046875 L 42.796875 -100.046875 C 44.554688 -100.046875 45.804688 -99.648438 46.546875 -98.859375 C 47.285156 -98.078125 47.613281 -96.804688 47.53125 -95.046875 L 45.578125 -41.40625 C 45.484375 -39.644531 45.019531 -38.367188 44.1875 -37.578125 C 43.351562 -36.796875 42.054688 -36.40625 40.296875 -36.40625 Z M 42.375 0 L 16.8125 0 C 15.050781 0 13.773438 -0.390625 12.984375 -1.171875 C 12.203125 -1.960938 11.8125 -3.238281 11.8125 -5 L 11.8125 -23.203125 C 11.8125 -24.960938 12.203125 -26.234375 12.984375 -27.015625 C 13.773438 -27.804688 15.050781 -28.203125 16.8125 -28.203125 L 42.375 -28.203125 C 44.132812 -28.203125 45.410156 -27.804688 46.203125 -27.015625 C 46.992188 -26.234375 47.390625 -24.960938 47.390625 -23.203125 L 47.390625 -5 C 47.390625 -3.238281 46.992188 -1.960938 46.203125 -1.171875 C 45.410156 -0.390625 44.132812 0 42.375 0 Z M 42.375 0 "/></g></g></g></svg>